# xmcd
#
# Track frame offsets: 
#        150
#        18753
#        36395
#        50386
#        62216
#        75629
#        92419
#        104164
#        118734
#        136882
#        151528
#        170741
#        186669
#        204662
#        224789
#        240670
#
# Disc length: 3407 seconds
#
# Revision: 0
# Processed by: cddbd v1.5.2PL0 Copyright (c) Steve Scherf et al.
# Submitted via: ExactAudioCopyFreeDBPlugin 1.0
#
DISCID=e70d4d10
DTITLE=MoTrip - Mama (Instrumental)
DYEAR=2015
DGENRE=Hip-Hop
TTITLE0=David gegen Goliath (instrumental)
TTITLE1=Mathematik (instrumental)
TTITLE2=Wie ein Dealer (instrumental)
TTITLE3=Trip (instrumental)
TTITLE4=Wut (instrumental)
TTITLE5=Hype (instrumental)
TTITLE6=Fan (instrumental)
TTITLE7=Kaltes Wasser (instrumental)
TTITLE8=Lauf der Zeit (instrumental)
TTITLE9=Mama (instrumental)
TTITLE10=Malcolm mittendrin (instrumental)
TTITLE11=Wenn die Sonne tief steht (instrumental)
TTITLE12=Selbstlos (instrumental)
TTITLE13=So wie Du bist (instrumental)
TTITLE14=Bevor ich geh (instrumental)
TTITLE15=Gegenwart (instrumental)
EXTD=
EXTT0=
EXTT1=
EXTT2=
EXTT3=
EXTT4=
EXTT5=
EXTT6=
EXTT7=
EXTT8=
EXTT9=
EXTT10=
EXTT11=
EXTT12=
EXTT13=
EXTT14=
EXTT15=
PLAYORDER=
